<?xml version="1.0" encoding="UTF-8" standalone="no"?>
<svg
   width="119.57275pt"
   height="104.3069pt"
   viewBox="0 0 119.57275 104.3069"
   version="1.1"
   id="svg641"
   sodipodi:docname="shield_schematic.svg"
   inkscape:version="1.1 (c4e8f9ed74, 2021-05-24)"
   xmlns:inkscape="http://www.inkscape.org/namespaces/inkscape"
   xmlns:sodipodi="http://sodipodi.sourceforge.net/DTD/sodipodi-0.dtd"
   xmlns="http://www.w3.org/2000/svg"
   xmlns:svg="http://www.w3.org/2000/svg">
  <defs
     id="defs645" />
  <sodipodi:namedview
     id="namedview643"
     pagecolor="#ffffff"
     bordercolor="#666666"
     borderopacity="1.0"
     inkscape:pageshadow="2"
     inkscape:pageopacity="0.0"
     inkscape:pagecheckerboard="0"
     inkscape:document-units="pt"
     showgrid="false"
     inkscape:zoom="4"
     inkscape:cx="97.75"
     inkscape:cy="71.25"
     inkscape:window-width="1920"
     inkscape:window-height="1060"
     inkscape:window-x="1920"
     inkscape:window-y="20"
     inkscape:window-maximized="1"
     inkscape:current-layer="surface1-3"
     fit-margin-top="0"
     fit-margin-left="0"
     fit-margin-right="0"
     fit-margin-bottom="0" />
  <g
     id="surface1"
     transform="translate(-5.3427426,-0.86777742)">
    <path
       style="fill:none;fill-opacity:1;fill-rule:evenodd;stroke:#7373de;stroke-width:0.283;stroke-miterlimit:4;stroke-dasharray:none;stroke-opacity:1"
       d="m 122.33594,13.136719 c 0,-9.449219 -14.17578,-9.449219 -14.17578,0 0,9.449219 14.17578,9.449219 14.17578,0"
       id="path348" />
    <path
       style="fill:none;fill-opacity:1;fill-rule:evenodd;stroke:#7373de;stroke-width:0.283;stroke-miterlimit:4;stroke-dasharray:none;stroke-opacity:1"
       d="m 24.328125,92.222656 c 0,-9.445312 -14.175781,-9.445312 -14.175781,0 0,9.449224 14.175781,9.449224 14.175781,0"
       id="path358" />
  </g>
  <g
     id="surface1-3"
     transform="translate(-0.86322131,-5.2720109)">
    <path
       id="path1138"
       style="fill:none;stroke:#7373de;stroke-width:0.283465;stroke-linecap:round;stroke-linejoin:miter;stroke-miterlimit:10;stroke-opacity:1"
       d="m 46.431179,96.546591 v -44.92584 m 50.316408,44.92584 H 46.431179 m 50.316408,-44.92584 v 44.92584 M 46.431179,51.620751 h 50.316408" />
    <path
       id="path1434"
       style="fill:none;stroke:#7373de;stroke-width:0.283465;stroke-linecap:round;stroke-linejoin:miter;stroke-miterlimit:10;stroke-opacity:1"
       d="m 120.27495,17.745759 c 0,-5.324184 -4.3164,-9.6366956 -9.63669,-9.6366956 M 80.802323,109.43718 36.411659,109.30398 M 14.189003,9.4527994 c 0.39816,-2.01564 1.957032,-3.601584 3.968784,-4.039056 m 26.359344,2.69532 H 110.63826 M 14.208515,77.148135 c -0.7812,4.093704 -3.593736,7.5078 -7.4609284,9.054648 M 120.27495,17.745759 l 0.0195,21.828168 m -0.48454,2.835936 -18.8162,61.226567 m -88.007827,4.73047 c -12.08203238,0 -16.5429364,-15.867213 -6.2382964,-22.164117 M 39.247595,5.4567274 18.157787,5.4137434 m 23.171832,1.132848 c -0.46512,-0.6912 -1.249992,-1.1016 -2.082024,-1.089864 M 100.99371,103.63643 c -1.203115,3.3984 -4.414099,5.66791 -8.015611,5.66791 m 0,0 -12.175776,0.13284 m -44.390664,-0.13284 c -0.26568,0 -0.53136,-0.0117 -0.796896,-0.0351 M 120.29447,39.573927 c 0,0.96876 -0.16416,1.925784 -0.48456,2.835936 M 35.614763,109.26921 12.985883,108.3669 M 14.208515,77.148135 14.189003,9.4527994 m 27.140616,-2.906208 c 0.753912,0.999936 1.93752,1.578096 3.187512,1.562472" />
  </g>
</svg>
