<?xml version="1.0" encoding="UTF-8" standalone="no"?>
<svg
   width="119.57298pt"
   height="104.3069pt"
   viewBox="0 0 119.57298 104.3069"
   version="1.1"
   id="svg1121"
   sodipodi:docname="shield_pinholes.svg"
   inkscape:version="1.1.1 (3bf5ae0d25, 2021-09-20)"
   xmlns:inkscape="http://www.inkscape.org/namespaces/inkscape"
   xmlns:sodipodi="http://sodipodi.sourceforge.net/DTD/sodipodi-0.dtd"
   xmlns="http://www.w3.org/2000/svg"
   xmlns:svg="http://www.w3.org/2000/svg">
  <defs
     id="defs1125">
    <inkscape:path-effect
       effect="fill_between_many"
       method="originald"
       linkedpaths="#path1040,0,1|#path1038,0,1|#path1036,0,1|#path1034,0,1|#path1032,0,1|#path1030,0,1|#path1028,0,1|#path1026,0,1|#path1024,0,1|#path1022,0,1|#path1020,0,1|#path1018,0,1|#path1016,0,1|#path1014,0,1|#path1012,0,1|#path1010,0,1|#path1434,0,1"
       id="path-effect6106"
       is_visible="true"
       lpeversion="0"
       join="true"
       close="true"
       autoreverse="true"
       applied="false" />
    <inkscape:path-effect
       effect="fill_between_many"
       method="originald"
       linkedpaths="#path2970,0,1|#path2968,0,1|#path2966,0,1|#path1138,0,1"
       id="path-effect6110"
       is_visible="true"
       lpeversion="0"
       join="true"
       close="true"
       autoreverse="true"
       applied="false" />
  </defs>
  <sodipodi:namedview
     id="namedview1123"
     pagecolor="#ffffff"
     bordercolor="#666666"
     borderopacity="1.0"
     inkscape:pageshadow="2"
     inkscape:pageopacity="0.0"
     inkscape:pagecheckerboard="0"
     inkscape:document-units="pt"
     showgrid="false"
     fit-margin-top="0"
     fit-margin-left="0"
     fit-margin-right="0"
     fit-margin-bottom="0"
     inkscape:zoom="3.2336957"
     inkscape:cx="65.250419"
     inkscape:cy="18.245378"
     inkscape:window-width="942"
     inkscape:window-height="1030"
     inkscape:window-x="1932"
     inkscape:window-y="32"
     inkscape:window-maximized="1"
     inkscape:current-layer="surface1" />
  <g
     id="surface1"
     transform="translate(-5.3427406,-0.86777742)">
    <g
       id="g3846"
       transform="matrix(-1,0,0,1,130.27923,0.17926694)">
      <path
         style="fill:#7373de;fill-opacity:1;fill-rule:evenodd;stroke:none"
         d="m 26.851562,59.839844 h 4.820313 v -4.820313 h -4.820313 z m 0,0"
         id="path830" />
      <path
         style="fill:#7373de;fill-opacity:1;fill-rule:evenodd;stroke:none"
         d="m 29.257812,62.21875 c -3.210937,0 -3.210937,4.820312 0,4.820312 3.214844,0 3.214844,-4.820312 0,-4.820312"
         id="path832" />
      <path
         style="fill:#7373de;fill-opacity:1;fill-rule:evenodd;stroke:none"
         d="m 29.257812,69.417969 c -3.210937,0 -3.210937,4.820312 0,4.820312 3.214844,0 3.214844,-4.820312 0,-4.820312"
         id="path834" />
      <path
         style="fill:#7373de;fill-opacity:1;fill-rule:evenodd;stroke:none"
         d="m 42.257812,71.816406 c 0,-3.214844 -4.820312,-3.214844 -4.820312,0 0,3.210938 4.820312,3.210938 4.820312,0"
         id="path842" />
      <path
         style="fill:#7373de;fill-opacity:1;fill-rule:evenodd;stroke:none"
         d="m 39.847656,62.207031 c -3.214844,0 -3.214844,4.816407 0,4.816407 3.210938,0 3.210938,-4.816407 0,-4.816407"
         id="path844" />
      <path
         style="fill:#7373de;fill-opacity:1;fill-rule:evenodd;stroke:none"
         d="m 100.28516,14.425781 c 0,-3.308593 -4.968754,-3.308593 -4.968754,0 0,3.3125 4.968754,3.3125 4.968754,0"
         id="path888" />
      <path
         style="fill:#7373de;fill-opacity:1;fill-rule:evenodd;stroke:none"
         d="m 100.29037,7.2116775 c 0,-3.3085933 -4.968755,-3.3085933 -4.968755,0 0,3.3125005 4.968755,3.3125005 4.968755,0"
         id="path888-5" />
      <path
         style="fill:#7373de;fill-opacity:1;fill-rule:evenodd;stroke:none"
         d="m 100.28516,21.628906 c 0,-3.3125 -4.968754,-3.3125 -4.968754,0 0,3.3125 4.968754,3.3125 4.968754,0"
         id="path890" />
      <path
         style="fill:#7373de;fill-opacity:1;fill-rule:evenodd;stroke:none"
         d="m 100.28516,28.828125 c 0,-3.3125 -4.968754,-3.3125 -4.968754,0 0,3.3125 4.968754,3.3125 4.968754,0"
         id="path892" />
      <path
         style="fill:#7373de;fill-opacity:1;fill-rule:evenodd;stroke:none"
         d="m 100.28516,36.027344 c 0,-3.3125 -4.968754,-3.3125 -4.968754,0 0,3.3125 4.968754,3.3125 4.968754,0"
         id="path894" />
      <path
         style="fill:#7373de;fill-opacity:1;fill-rule:evenodd;stroke:none"
         d="m 100.28516,43.226562 c 0,-3.3125 -4.968754,-3.3125 -4.968754,0 0,3.3125 4.968754,3.3125 4.968754,0"
         id="path896" />
      <path
         style="fill:#7373de;fill-opacity:1;fill-rule:evenodd;stroke:none"
         d="m 57.085938,43.226562 c 0,-3.3125 -4.96875,-3.3125 -4.96875,0 0,3.3125 4.96875,3.3125 4.96875,0"
         id="path898" />
      <path
         style="fill:#7373de;fill-opacity:1;fill-rule:evenodd;stroke:none"
         d="m 57.085938,36.027344 c 0,-3.3125 -4.96875,-3.3125 -4.96875,0 0,3.3125 4.96875,3.3125 4.96875,0"
         id="path900" />
      <path
         style="fill:#7373de;fill-opacity:1;fill-rule:evenodd;stroke:none"
         d="m 57.085938,28.828125 c 0,-3.3125 -4.96875,-3.3125 -4.96875,0 0,3.3125 4.96875,3.3125 4.96875,0"
         id="path902" />
      <path
         style="fill:#7373de;fill-opacity:1;fill-rule:evenodd;stroke:none"
         d="m 57.085938,21.628906 c 0,-3.3125 -4.96875,-3.3125 -4.96875,0 0,3.3125 4.96875,3.3125 4.96875,0"
         id="path904" />
      <path
         style="fill:#7373de;fill-opacity:1;fill-rule:evenodd;stroke:none"
         d="m 57.085938,14.425781 c 0,-3.308593 -4.96875,-3.308593 -4.96875,0 0,3.3125 4.96875,3.3125 4.96875,0"
         id="path906" />
      <path
         style="fill:#7373de;fill-opacity:1;fill-rule:evenodd;stroke:none"
         d="m 57.085938,7.226562 c 0,-3.3125 -4.96875,-3.3125 -4.96875,0 0,3.3125 4.96875,3.3125 4.96875,0"
         id="path908" />
      <g
         id="g4555"
         transform="translate(-0.585038,0.41976006)">
        <path
           style="fill:#7373de;fill-opacity:1;fill-rule:evenodd;stroke:none"
           d="m 29.006826,20.333401 c 0,-3.3125 4.96875,-3.3125 4.96875,0 0,3.3125 -4.96875,3.3125 -4.96875,0"
           id="path904-7" />
        <path
           style="fill:#7373de;fill-opacity:1;fill-rule:evenodd;stroke:none"
           d="m 29.006826,0.833401 c 0,-3.3125 4.96875,-3.3125 4.96875,0 0,3.3125 -4.96875,3.3125 -4.96875,0"
           id="path904-7-3" />
        <path
           style="fill:#7373de;fill-opacity:1;fill-rule:evenodd;stroke:none"
           d="m 38.554688,4.195312 c 0,-2.644531 3.96875,-2.644531 3.96875,0 v 1.699219 c 0,2.644531 -3.96875,2.644531 -3.96875,0 V 4.195312"
           id="path910" />
        <path
           style="fill:#7373de;fill-opacity:1;fill-rule:evenodd;stroke:none"
           d="m 22.964844,12.699219 c 0,-2.644531 3.96875,-2.644531 3.96875,0 v 1.699219 c 0,2.648437 -3.96875,2.648437 -3.96875,0 v -1.699219"
           id="path912" />
        <path
           style="fill:#7373de;fill-opacity:1;fill-rule:evenodd;stroke:none"
           d="m 22.964844,4.195312 c 0,-2.644531 3.96875,-2.644531 3.96875,0 v 1.699219 c 0,2.644531 -3.96875,2.644531 -3.96875,0 V 4.195312"
           id="path914" />
        <path
           style="fill:#7373de;fill-opacity:1;fill-rule:evenodd;stroke:none"
           d="m 35.718751,24.035156 c 0,-2.644531 3.96875,-2.644531 3.96875,0 v 5.953125 c 0,2.648438 -3.96875,2.648438 -3.96875,0 v -5.953125"
           id="path916" />
        <path
           style="fill:#7373de;fill-opacity:1;fill-rule:evenodd;stroke:none"
           d="m 26.933594,27.722656 h -3.96875 v -5.667968 h 3.96875 z m 0,0"
           id="path918" />
      </g>
      <path
         style="fill:none;stroke:#7373de;stroke-width:0.00984252;stroke-linecap:round;stroke-linejoin:miter;stroke-miterlimit:10;stroke-opacity:1"
         d="m 4.606376,-3.627081 v 0.00553"
         id="path976"
         transform="matrix(72,0,0,-72,-302.40126,-188.92324)" />
    </g>
  </g>
</svg>
