<?xml version="1.0" encoding="UTF-8" standalone="no"?>
<svg
   width="119.57275pt"
   height="104.3069pt"
   viewBox="0 0 119.57275 104.3069"
   version="1.1"
   id="svg641"
   sodipodi:docname="shield_plate.svg"
   inkscape:version="1.1 (c4e8f9ed74, 2021-05-24)"
   xmlns:inkscape="http://www.inkscape.org/namespaces/inkscape"
   xmlns:sodipodi="http://sodipodi.sourceforge.net/DTD/sodipodi-0.dtd"
   xmlns="http://www.w3.org/2000/svg"
   xmlns:svg="http://www.w3.org/2000/svg">
  <defs
     id="defs645">
    <inkscape:path-effect
       effect="fill_between_many"
       method="originald"
       linkedpaths="#path1040,0,1|#path1038,0,1|#path1036,0,1|#path1034,0,1|#path1032,0,1|#path1030,0,1|#path1028,0,1|#path1026,0,1|#path1024,0,1|#path1022,0,1|#path1020,0,1|#path1018,0,1|#path1016,0,1|#path1014,0,1|#path1012,0,1|#path1010,0,1|#path1434,0,1|"
       id="path-effect1061" />
  </defs>
  <sodipodi:namedview
     id="namedview643"
     pagecolor="#ffffff"
     bordercolor="#666666"
     borderopacity="1.0"
     inkscape:pageshadow="2"
     inkscape:pageopacity="0.0"
     inkscape:pagecheckerboard="0"
     inkscape:document-units="pt"
     showgrid="false"
     inkscape:zoom="11.313709"
     inkscape:cx="52.281708"
     inkscape:cy="35.443727"
     inkscape:window-width="1920"
     inkscape:window-height="1060"
     inkscape:window-x="1920"
     inkscape:window-y="20"
     inkscape:window-maximized="1"
     inkscape:current-layer="surface1-3"
     fit-margin-top="0"
     fit-margin-left="0"
     fit-margin-right="0"
     fit-margin-bottom="0" />
  <g
     id="surface1-3"
     transform="translate(-0.86322131,-5.2720109)">
    <path
       inkscape:original-d="M 0,0"
       inkscape:path-effect="#path-effect1061"
       d="m 41.329619,6.5465914 c 0.753912,0.999936 1.93752,1.578096 3.187512,1.562472 h 66.121129 c 5.32029,0 9.63669,4.3125116 9.63669,9.6366956 l 0.0195,21.828168 -0.48454,2.835936 -18.8162,61.226567 c -1.203115,3.3984 -4.414099,5.66791 -8.015611,5.66791 l -12.175776,0.13284 -44.390664,-0.1332 c -0.26568,3.6e-4 -0.53136,-0.0113 -0.796896,-0.0347 l -22.62888,-0.90234 c -12.08203238,0 -16.5429364,-15.867213 -6.2382964,-22.164117 3.8671924,-1.546848 6.6797284,-4.960944 7.4609284,-9.054648 L 14.189003,9.4527994 c 0.39816,-2.01564 1.957032,-3.601584 3.968784,-4.039056 l 21.089808,0.042984 c 0.832032,-0.011736 1.616904,0.398664 2.082024,1.089864 L 120.29447,39.573927 c 0,0.96876 -0.16416,1.925784 -0.48456,2.835936 l -26.831811,66.894477 -12.175776,0.13284 z"
       id="path1063" />
    <path
       style="fill:none;stroke:#7373de;stroke-width:0.283465;stroke-linecap:round;stroke-linejoin:miter;stroke-miterlimit:10;stroke-opacity:1"
       d="m 41.329619,6.5465914 c 0.753912,0.999936 1.93752,1.578096 3.187512,1.562472"
       id="path1040" />
    <path
       style="fill:none;stroke:#7373de;stroke-width:0.283465;stroke-linecap:round;stroke-linejoin:miter;stroke-miterlimit:10;stroke-opacity:1"
       d="M 14.208515,77.148135 14.189003,9.4527994"
       id="path1038" />
    <path
       style="fill:none;stroke:#7373de;stroke-width:0.283465;stroke-linecap:round;stroke-linejoin:miter;stroke-miterlimit:10;stroke-opacity:1"
       d="M 35.614763,109.26921 12.985883,108.3669"
       id="path1036" />
    <path
       style="fill:none;stroke:#7373de;stroke-width:0.283465;stroke-linecap:round;stroke-linejoin:miter;stroke-miterlimit:10;stroke-opacity:1"
       d="m 120.29447,39.573927 c 0,0.96876 -0.16416,1.925784 -0.48456,2.835936"
       id="path1034" />
    <path
       style="fill:none;stroke:#7373de;stroke-width:0.283465;stroke-linecap:round;stroke-linejoin:miter;stroke-miterlimit:10;stroke-opacity:1"
       d="m 36.411659,109.30434 c -0.26568,0 -0.53136,-0.0117 -0.796896,-0.0351"
       id="path1032" />
    <path
       style="fill:none;stroke:#7373de;stroke-width:0.283465;stroke-linecap:round;stroke-linejoin:miter;stroke-miterlimit:10;stroke-opacity:1"
       d="m 92.978099,109.30434 -12.175776,0.13284"
       id="path1030" />
    <path
       style="fill:none;stroke:#7373de;stroke-width:0.283465;stroke-linecap:round;stroke-linejoin:miter;stroke-miterlimit:10;stroke-opacity:1"
       d="m 100.99371,103.63643 c -1.203115,3.3984 -4.414099,5.66791 -8.015611,5.66791"
       id="path1028" />
    <path
       style="fill:none;stroke:#7373de;stroke-width:0.283465;stroke-linecap:round;stroke-linejoin:miter;stroke-miterlimit:10;stroke-opacity:1"
       d="m 41.329619,6.5465914 c -0.46512,-0.6912 -1.249992,-1.1016 -2.082024,-1.089864"
       id="path1026" />
    <path
       style="fill:none;stroke:#7373de;stroke-width:0.283465;stroke-linecap:round;stroke-linejoin:miter;stroke-miterlimit:10;stroke-opacity:1"
       d="M 39.247595,5.4567274 18.157787,5.4137434"
       id="path1024" />
    <path
       style="fill:none;stroke:#7373de;stroke-width:0.283465;stroke-linecap:round;stroke-linejoin:miter;stroke-miterlimit:10;stroke-opacity:1"
       d="m 12.985883,108.3669 c -12.08203238,0 -16.5429364,-15.867213 -6.2382964,-22.164117"
       id="path1022" />
    <path
       style="fill:none;stroke:#7373de;stroke-width:0.283465;stroke-linecap:round;stroke-linejoin:miter;stroke-miterlimit:10;stroke-opacity:1"
       d="m 119.80991,42.409863 -18.8162,61.226567"
       id="path1020" />
    <path
       style="fill:none;stroke:#7373de;stroke-width:0.283465;stroke-linecap:round;stroke-linejoin:miter;stroke-miterlimit:10;stroke-opacity:1"
       d="m 120.27495,17.745759 0.0195,21.828168"
       id="path1018" />
    <path
       style="fill:none;stroke:#7373de;stroke-width:0.283465;stroke-linecap:round;stroke-linejoin:miter;stroke-miterlimit:10;stroke-opacity:1"
       d="m 14.208515,77.148135 c -0.7812,4.093704 -3.593736,7.5078 -7.4609284,9.054648"
       id="path1016" />
    <path
       style="fill:none;stroke:#7373de;stroke-width:0.283465;stroke-linecap:round;stroke-linejoin:miter;stroke-miterlimit:10;stroke-opacity:1"
       d="M 44.517131,8.1090634 H 110.63826"
       id="path1014" />
    <path
       style="fill:none;stroke:#7373de;stroke-width:0.283465;stroke-linecap:round;stroke-linejoin:miter;stroke-miterlimit:10;stroke-opacity:1"
       d="m 14.189003,9.4527994 c 0.39816,-2.01564 1.957032,-3.601584 3.968784,-4.039056"
       id="path1012" />
    <path
       style="fill:none;stroke:#7373de;stroke-width:0.283465;stroke-linecap:round;stroke-linejoin:miter;stroke-miterlimit:10;stroke-opacity:1"
       d="m 80.802323,109.43718 -44.390664,-0.1332"
       id="path1010" />
    <path
       style="fill:#000000;stroke:#7373de;stroke-width:0.283465;stroke-linecap:round;stroke-linejoin:miter;stroke-miterlimit:10;stroke-opacity:1"
       d="m 120.27495,17.745759 c 0,-5.324184 -4.3164,-9.6366956 -9.63669,-9.6366956"
       id="path1434" />
    <path
       style="fill:#000000;stroke:#7373de;stroke-width:0.0943333;stroke-miterlimit:10;fill-opacity:1"
       d="m 60,138.38088 c -17.872703,-0.1615 -40.505196,-0.84531 -45.8072,-1.384 -4.9747395,-0.50543 -9.602098,-3.76645 -11.879648,-8.37188 -2.6208525,-5.29963 -2.33110284,-11.02233 0.796261,-15.72656 1.4932202,-2.24612 3.1644882,-3.7007 5.9542,-5.18222 3.740505,-1.98645 6.461469,-4.91971 8.201336,-8.84122 L 17.875,97.5 18,51.25 18.125,5 18.665593,4 C 19.312034,2.8041995 20.550627,1.5947191 21.747479,0.99055163 22.786653,0.46597985 21.790834,0.49098392 38.682518,0.5653293 L 52.240035,0.625 53.859575,2.0926917 C 54.99889,3.125184 55.811557,3.6440935 56.600262,3.8426918 57.41263,4.047248 70.138977,4.125 102.80818,4.125 c 49.73344,0 46.38679,-0.106082 49.53944,1.570298 2.74982,1.4621777 5.0076,4.2317668 6.05674,7.429702 0.41163,1.254723 0.45859,2.766097 0.53684,17.277962 0.0727,13.476888 0.0285,16.146598 -0.28935,17.5 -0.2063,0.87837 -6.06596,20.103288 -13.02146,42.722038 -9.58859,31.18136 -12.84089,41.4478 -13.45088,42.46002 -1.45223,2.40985 -3.80785,4.17758 -6.55451,4.91873 -1.31837,0.35575 -4.17902,0.41396 -23.625,0.48074 -12.16875,0.0418 -31.06875,-0.005 -42,-0.10361 z"
       id="path1221"
       transform="matrix(0.75,0,0,0.75,0.86322131,5.2720109)" />
    <path
       style="fill:#000000;fill-opacity:1;stroke:#7373de;stroke-width:0.0943333;stroke-miterlimit:10"
       d="m 59.625,138.20475 c -15.17952,-0.116 -39.211876,-0.84015 -44.454913,-1.33952 -3.04482,-0.29001 -5.115447,-0.96014 -7.3157485,-2.36766 -6.4469262,-4.12405 -8.9526781,-12.97067 -5.5756763,-19.68507 1.4894451,-2.96143 3.3433403,-4.86382 6.5685743,-6.7404 4.0490875,-2.35594 6.3196065,-4.66684 8.1419595,-8.286758 L 18.013835,97.75 18.173415,51.2958 18.332995,4.8416005 19.232185,3.554524 C 19.73364,2.8367555 20.673877,1.9318442 21.357848,1.5087239 L 22.58432,0.75 28.60466,0.66249645 c 3.311188,-0.048127 9.994572,-0.006741 14.851968,0.0919684 l 8.831627,0.17947199 1.418373,1.25212536 c 2.495089,2.2026416 -2.198376,1.9923595 47.168372,2.1132895 24.2,0.059281 45.20495,0.2022615 46.67766,0.3177345 C 150.9654,4.884674 152.42079,5.554949 154.89807,8 c 2.41645,2.385012 3.35254,4.347443 3.65219,7.656457 0.12023,1.327608 0.18546,9.091767 0.14497,17.253688 l -0.0736,14.839855 -2.20496,7.125 c -1.21273,3.91875 -4.56567,14.83125 -7.45099,24.25 -9.65538,31.51883 -15.13443,49.00956 -16.47405,52.59 -0.67868,1.81394 -1.90091,3.36562 -3.52924,4.48056 -2.33869,1.60132 -2.96448,1.72982 -9.46238,1.94299 -5.21338,0.17102 -40.981792,0.21057 -59.875,0.0662 z"
       id="path2296"
       transform="matrix(0.75,0,0,0.75,0.86322131,5.2720109)" />
    <path
       style="fill:#000000;fill-opacity:1;stroke:#7373de;stroke-width:0.0943333;stroke-miterlimit:10"
       d="M 47.25,137.86688 C 35.852425,137.62162 23.077752,137.17976 18.001248,136.85518 11.276513,136.42523 8.9139502,135.54769 5.6170232,132.25524 4.1248905,130.76514 3.372964,129.76832 2.6900713,128.375 -1.022349,120.80049 1.4593421,112.73257 8.875,108.26796 c 4.270521,-2.57109 6.471286,-4.84407 8.36835,-8.64296 l 0.936324,-1.875 0.17347,-46.3538 C 18.469067,20.419829 18.611979,4.882894 18.78394,4.561582 19.234444,3.7198073 20.840113,2.0743864 21.806141,1.4645601 L 22.740064,0.875 33.932532,0.875915 c 6.155858,5.025e-4 12.820323,0.0753776 14.809925,0.166388 l 3.617458,0.1654735 1.132542,1.0486892 c 0.622898,0.576779 1.391258,1.1838541 1.707465,1.3490558 C 56.291092,4.175602 62.94399,4.3644052 83,4.3944632 c 11.06875,0.016587 30.41875,0.1147873 43,0.2182188 20.56951,0.169104 23.00923,0.2311492 24.20681,0.6156095 1.84567,0.5925127 2.65403,1.131325 4.61811,3.0781943 1.9798,1.9624582 3.04059,3.9244082 3.41629,6.3185152 0.15312,0.975688 0.25577,7.864037 0.2569,17.239119 l 0.002,15.614117 -7.02642,22.885883 c -14.01321,45.64271 -18.42557,59.6584 -19.48845,61.90429 -0.79863,1.68754 -2.77673,3.73503 -4.41678,4.57172 -0.56097,0.28619 -1.67772,0.64909 -2.48165,0.80644 -1.77882,0.34816 -63.744395,0.52354 -77.836698,0.22031 z"
       id="path2335"
       transform="matrix(0.75,0,0,0.75,0.86322131,5.2720109)" />
    <path
       style="fill:#000000;fill-opacity:1;stroke:#7373de;stroke-width:0.0943333;stroke-miterlimit:10"
       d="M 43,137.60382 C 38.53125,137.49863 31.725,137.2893 27.875,137.13864 11.319859,136.49077 9.7183695,136.10318 5.5086743,131.72561 2.5531409,128.65222 1.2471068,125.46465 1.2529672,121.33892 c 0.00753,-5.30341 2.5842973,-9.51908 7.9902371,-13.07227 4.2398947,-2.78677 5.8475157,-4.4311 7.8903027,-8.07044 l 1.209717,-2.155178 0.186667,-45.270515 C 18.632558,27.871732 18.788421,6.8310072 18.876254,6.0133492 19.062942,4.2754235 19.553351,3.4896828 21.325808,2.0886354 L 22.592671,1.0872383 37.410865,1.1686191 52.22906,1.25 53.30203,2.2638657 c 1.67772,1.5853038 1.808183,1.646414 4.002625,1.8748803 1.13869,0.1185505 21.026595,0.3341172 44.195345,0.479037 23.16875,0.14492 43.5875,0.3592068 45.375,0.4761927 4.11433,0.2692693 5.05315,0.6713238 7.6432,3.2732218 2.17539,2.1853505 3.15259,3.9459275 3.49156,6.2905545 0.1266,0.875737 0.23245,8.66743 0.23521,17.314876 l 0.005,15.722627 -7.23202,23.527373 c -10.26563,33.396412 -13.94962,45.241422 -16.66342,53.577302 -2.05971,6.32671 -2.51903,7.49325 -3.44529,8.75 -1.20914,1.64057 -2.37897,2.61014 -4.10093,3.39892 -1.13006,0.51764 -1.63918,0.54948 -11.30834,0.70714 -13.5933,0.22164 -62.35761,0.18655 -72.5,-0.0522 z"
       id="path2374"
       transform="matrix(0.75,0,0,0.75,0.86322131,5.2720109)" />
    <path
       style="fill:#000000;fill-opacity:1;stroke:#7373de;stroke-width:0.0943333;stroke-miterlimit:10"
       d="M 39.875,137.3558 C 19.080595,136.83149 12.724777,136.27753 9.521302,134.71021 7.898387,133.9162 4.9292335,131.07105 3.692658,129.125 2.0869275,126.598 1.625,124.89453 1.625,121.5 c 0,-3.63918 0.4280037,-5.1648 2.1865883,-7.7941 1.4139354,-2.11401 2.5731977,-3.18259 6.3134117,-5.81956 3.332416,-2.34946 5.321461,-4.43427 7.060808,-7.40074 l 1.310808,-2.2356 0.0089,-7 c 0.0049,-3.85 0.1132,-24.67593 0.240649,-46.279843 C 19.009292,0.3714425 18.775859,4.446 21.180035,2.4875728 L 22.545834,1.375 h 14.803041 14.803043 l 0.861539,0.8914922 C 54.97224,4.29337 54.495013,4.2078715 64.988988,4.411987 70.151295,4.5123975 90.40625,4.7191865 110,4.8715178 c 19.59375,0.1523314 36.68345,0.3851924 37.97711,0.5174692 1.49415,0.1527757 2.74394,0.4361912 3.4263,0.7769793 1.16487,0.5817614 3.96018,3.2607077 4.98543,4.7778917 1.53181,2.266791 1.47154,1.492859 1.5563,19.984589 l 0.0776,16.928448 -7.52961,24.446553 c -14.59903,47.398992 -17.77668,57.403732 -19.00971,59.851462 -0.87893,1.74479 -2.64413,3.53839 -4.32739,4.397 -1.24998,0.6376 -1.44162,0.65815 -7.90603,0.84771 -8.31996,0.24397 -69.296192,0.21031 -79.375,-0.0438 z"
       id="path2413"
       transform="matrix(0.75,0,0,0.75,0.86322131,5.2720109)" />
    <path
       style="fill:none;stroke:#000000;stroke-width:0.75px;stroke-linecap:butt;stroke-linejoin:miter;stroke-opacity:1"
       d="m 118.66129,42.788423 c 0,0.192062 0,0.384125 0,0.576187 0,0.388806 0.0304,0.06574 -0.0469,0.297478 -0.079,0.237046 0.0805,0.555107 0,0.791595 -0.0781,0.229211 -0.17537,0.550368 -0.32402,0.699025 -0.0225,0.02247 0,0.198089 0,0.229685 0,0.06132 0.0248,-0.120675 0.0469,-0.177894 0.13626,-0.353475 0.35592,-0.823625 0.5736,-1.150151 0.0801,-0.120181 0.012,-0.234445 0.0469,-0.373828 0.0169,-0.06779 0.0768,-0.119709 0.0937,-0.1875 0.12892,-0.515727 0.1875,-0.868482 0.1875,-1.405662 0,-0.01065 0,0.0213 0,0.03194 0,0.0752 0.012,0.151355 0,0.225596 -0.0224,0.138769 -0.0578,0.275736 -0.10227,0.409089 -0.21149,0.634843 -0.0955,0.08152 -0.24838,0.643293 -0.0212,0.07783 -0.0154,0.163164 -0.0469,0.237413 -0.0173,0.04068 -0.0692,0.05698 -0.0937,0.09375 -7.5e-4,0.0013 7.5e-4,0.09151 0,0.09315 -0.10875,0.214732 -0.42188,0.828295 -0.42188,1.077529 0,0.01416 -0.003,-0.02862 0,-0.04249 0.061,-0.293895 0.0391,-0.113485 0.19001,-0.468043 0.0605,-0.142147 0.0934,-0.29591 0.16276,-0.433916 0.24029,-0.477712 0.62128,-0.850661 0.62128,-1.402951 0,-0.05654 -0.0256,0.110651 -0.0469,0.16302 -0.0471,0.115743 -0.1048,0.227145 -0.14864,0.344169 -0.0617,0.16474 -0.0903,0.342429 -0.16775,0.500394 -0.0486,0.09915 -0.15169,0.163503 -0.20504,0.260181 -0.0645,0.116883 -0.0984,0.24835 -0.14063,0.375 -0.0209,0.06272 0.0108,0.159072 0,0.223173 -0.0472,0.281017 -0.26147,0.478263 -0.33026,0.753428 -0.022,0.08788 0.022,0.192229 0,0.280105 -0.0718,0.287556 -0.16283,0.61432 -0.28125,0.890625 -0.0643,0.149995 -0.16,0.303732 -0.1875,0.46875 -0.0519,0.311352 -0.18289,0.581684 -0.23438,0.890625 -0.0591,0.354621 -0.1172,0.72664 -0.1875,1.078125 -0.0506,0.252738 -0.0688,0.2705 -0.18691,0.467579 -0.17012,0.284005 0.0248,0.01928 -0.0469,0.234375 -0.007,0.02096 -0.0313,0.03125 -0.0469,0.04687 -0.0156,0.03125 -0.0384,0.05986 -0.0469,0.09375 -0.0729,0.291681 -0.19059,0.568681 -0.32812,0.84375 -0.14945,0.298892 -0.22524,0.63798 -0.375,0.9375 -0.18858,0.377158 -0.44304,0.736881 -0.60938,1.125 -0.0764,0.178393 -0.0499,0.339149 -0.0937,0.514441 -0.0314,0.125611 -0.11446,0.244179 -0.14062,0.375 -0.0529,0.264404 -0.12248,0.536791 -0.1875,0.796875 -0.0304,0.121547 -0.14021,0.217763 -0.1875,0.328125 -0.0691,0.161212 -0.0865,0.353223 -0.14063,0.515625 -0.0526,0.157794 -0.14721,0.307608 -0.1875,0.46875 -0.0526,0.21069 0.11616,-0.04483 -0.0469,0.28125 -0.0198,0.03953 -0.074,0.05422 -0.0937,0.09375 -0.1,0.199911 0.11865,0.594825 0.0469,0.808353 -0.15657,0.46578 -0.23319,0.795982 -0.23319,1.306341"
       id="path7911" />
    <path
       style="fill:none;stroke:#000000;stroke-width:0.75px;stroke-linecap:butt;stroke-linejoin:miter;stroke-opacity:1"
       d="m 114.46559,58.016647 -2.55691,7.87788"
       id="path7913" />
    <path
       style="fill:none;stroke:#000000;stroke-width:0.75px;stroke-linecap:butt;stroke-linejoin:miter;stroke-opacity:1"
       d="m 118.52795,36.104731 c 0.0337,0.08405 0.22263,0.559068 0.30725,0.601917 0.0834,0.04225 0.33897,0.151526 0.4045,0.223742 0.41735,0.459976 0.49337,2.024614 0.49337,2.76493 0,0.06274 4.3e-4,0.762287 0,0.762644 -0.10146,0.08441 0.006,-0.204885 -0.0932,0.09375 -0.0476,0.142651 0.0737,0.388852 0,0.517435 -0.0685,0.119603 -0.13435,0.319347 -0.13435,0.460556 0,0.08279 -0.0469,0.106825 -0.0469,0.180043 0,0.02259 0.0143,0.16812 0,0.178297 -0.0499,0.03543 -0.24143,0.427289 -0.17842,0.48179 0.13391,0.115833 0.3532,0.02546 0.52966,0.04003"
       id="path7917" />
    <path
       style="fill:none;stroke:#000000;stroke-width:0.75px;stroke-linecap:butt;stroke-linejoin:miter;stroke-opacity:1"
       d="m 119.378,38.909089 c -0.0626,0.150133 -0.19047,0.434933 -0.22779,0.602849 -0.0317,0.142741 -0.0452,1.278018 0,1.361968 0.0679,0.126276 0.0893,0.13889 0.23007,0.290776"
       id="path7919" />
    <path
       style="fill:none;stroke:#000000;stroke-width:0.75px;stroke-linecap:butt;stroke-linejoin:miter;stroke-opacity:1"
       d="m 114.46559,58.016647 c -0.0384,-0.410724 0.15631,-0.640467 0.23851,-0.96927 0.009,-0.03412 -0.0194,-0.141456 0,-0.178566 0.0487,-0.09313 0.0471,-0.168895 0.0915,-0.280094 0.0348,-0.0869 0.10182,-0.156782 0.14062,-0.234375 0.0302,-0.06048 -0.0283,-0.0322 0,-0.09072 0.0521,-0.107874 0.13094,-0.223615 0.18446,-0.328125 0.0112,-0.02176 -0.0121,-0.0521 0,-0.07334 0.0215,-0.03762 0.0762,-0.05267 0.0899,-0.09375 0.0853,-0.255859 0.19708,-0.534172 0.30467,-0.678111 0.0538,-0.07205 -0.0203,-0.322906 0.0362,-0.379326 0.0605,-0.06045 -0.004,-0.117133 0.0385,-0.208031 0.12748,-0.272056 0.16305,-0.86696 0.31509,-1.043374 0.0457,-0.05297 -0.0348,-0.214464 0,-0.276773 0.0296,-0.05294 0.0646,-0.08239 0.0915,-0.135936 0.0365,-0.07253 -0.0345,-0.198879 0,-0.272452 0.0641,-0.136796 0.22313,-0.876458 0.29838,-0.876458"
       id="path7923" />
    <path
       style="fill:#000000;stroke:#000000;stroke-width:0.75px;stroke-linecap:butt;stroke-linejoin:miter;stroke-opacity:1;fill-opacity:1"
       d="m 52.959348,108.91561 9.178906,0.16355 11.799659,0.093 10.356231,-0.0708 7.260517,-0.0913 2.907844,-0.40979 2.422136,-0.96605 -49.236135,-0.10437 1.016772,1.36499 z"
       id="path9424"
       sodipodi:nodetypes="cccccccccc" />
    <path
       style="fill:none;stroke:#000000;stroke-width:0.75px;stroke-linecap:butt;stroke-linejoin:miter;stroke-opacity:1"
       d="m 48.797281,107.771 c 0.493079,0.36134 1.154612,0.4624 1.757103,0.49381 0.346314,0.0181 0.737615,-0.039 1.088412,0 0.354154,0.0394 0.744351,0.14505 1.103188,0.0937 0.167669,-0.024 0.330958,-0.0733 0.498322,-0.0993 0.181697,-0.0283 0.11876,0.008 0.233779,0.0463 0.128754,0.0425 0.643458,-0.0569 0.703125,0 0.01078,0.0103 -0.01052,0.0341 0,0.0447 0.02049,0.0214 0.06727,-0.0208 0.08802,0 0.02397,0.024 0.01834,0.0719 0.04687,0.0902 0.112825,0.0724 0.346854,-0.0603 0.468155,0 0.0948,0.0471 0.150638,0.11082 0.280072,0.13944 0.216627,0.0479 2.175132,0.13527 2.346668,0.0924 0.800748,-0.20019 0.03153,-0.008 0.28125,-0.14063 0.123265,-0.0653 0.279219,0.009 0.418396,0 0.436015,-0.0281 0.844552,-0.11456 1.266746,-0.20838 0.117252,-0.0261 0.251686,0.0263 0.368935,0 0.08211,-0.0184 0.153757,-0.0697 0.234375,-0.0937 0.314782,-0.0941 1.007521,-0.09 1.302795,-0.0478 0.130426,0.0186 0.264303,0.11295 0.375,0.14063 0.16137,0.0403 0.353098,-0.0405 0.514435,0 0.127059,0.0319 0.251798,0.0691 0.375,0.0937 0.119002,0.0238 0.257384,-0.0294 0.375,0 0.132353,0.0331 0.242647,0.15441 0.375,0.1875 0.116159,0.029 0.262046,-0.0376 0.375,0 0.02096,0.007 0.03125,0.0313 0.04687,0.0469 0.04687,0.0156 0.09217,0.0372 0.140625,0.0469 0.200861,0.0402 0.64578,0.0151 0.828461,-0.0469 0.176598,-0.0598 0.0044,-0.0473 0.233779,-0.0932 0.524075,-0.10482 1.066548,0.16472 1.584572,0.1003 0.113416,-0.0141 0.220779,-0.0723 0.328125,-0.0937 0.05378,-0.0107 0.979358,-0.0481 0.984375,-0.0469 0.13898,0.0347 0.276835,0.0647 0.421875,0.0937 0.135143,0.027 0.285888,-0.0226 0.421875,0 0.246637,0.0411 0.495516,0.0937 0.75,0.0937 0.162709,0 0.837604,-0.0665 0.953694,0 0.226132,0.12944 0.589806,0.0131 0.856842,0.0446 0.48572,0.0574 0.960732,0.0181 1.447036,0.0469 0.145053,0.009 0.287048,0.0544 0.432347,0.0556 0.399563,0.004 0.832632,-0.0584 1.231041,-0.0946 0.08848,-0.008 0.456559,-0.0523 0.558391,0 0.08014,0.0411 0.08446,0.11382 0.186905,0.13944 0.113889,0.0285 0.24957,-0.0291 0.363293,0 0.03385,0.009 0.05929,0.0411 0.09375,0.0469 0.158115,0.0263 0.315067,-0.0298 0.468751,-0.0469 0.170085,-0.0189 0.432398,-0.0287 0.604695,0 0.06352,0.0106 0.123075,0.0469 0.1875,0.0469 0.10422,0 0.313403,-0.0757 0.421875,-0.0937 0.145613,-0.0243 0.305805,0.0289 0.450458,0 0.09413,0.0107 0.152745,-0.0734 0.234375,-0.0937 0.42495,-0.10624 1.174245,0.0674 1.648215,0 0.341062,-0.0485 0.683932,-0.0835 1.026615,-0.14062 0.230047,-0.0383 0.470047,0.10431 0.6996,0.1371 0.0928,0.0133 0.19719,-0.0416 0.28125,0 0.05197,0.0257 -0.03052,0.0965 0.18693,0.14005 0.190387,0.0381 0.421762,-0.0118 0.597,-0.0469 0.191715,-0.0383 0.405285,0.0322 0.59823,0 0.09262,-0.0155 0.23937,-0.0841 0.343987,-0.0469 0.367358,0.13082 2.036175,0.0703 2.387558,0 0.15171,-0.0304 1.51065,-0.0158 1.54245,0 0.109485,0.0544 0.23787,0.0634 0.3744,0.0463 0.515947,-0.0645 0.09441,-0.0119 0.421875,-0.0937 0.07125,-0.0179 0.396825,0.0469 0.507922,0.0469 0.602865,0 1.22055,0.0358 1.820573,0 0.316852,-0.0189 0.51957,-0.0937 0.83391,-0.0937 0.331027,0 0.07843,-0.002 0.316702,0.0907 0.06848,0.0265 0.831548,0.0251 0.93165,0 0.125618,-0.0314 0.244185,-0.11447 0.375,-0.14063 0.310418,-0.0621 0.658388,0.005 0.972008,-0.0469 0.59748,-0.0996 1.154347,-0.38381 1.679302,-0.51504 0.07771,-0.0194 0.299888,-0.0995 0.367298,-0.14063 0.05662,-0.0345 0.07774,-0.11966 0.140625,-0.14062 0.02962,-0.01 0.06413,0.01 0.09375,0 7.5e-4,-3.6e-4 0.09171,-0.0924 0.09316,-0.0932 0.04223,-0.0217 0.283103,-0.1279 0.30573,-0.13695 0.042,-0.0168 0.10389,0.0322 0.135735,0 0.02287,-0.0231 0.0159,-0.0973 0.04628,-0.0858 0.08983,0.034 0.168278,0.0926 0.25242,0.13895"
       id="path9955" />
    <path
       style="fill:none;stroke:#000000;stroke-width:0.75px;stroke-linecap:butt;stroke-linejoin:miter;stroke-opacity:1"
       d="m 95.772151,106.02736 c -0.0579,0.25636 0.147233,0.43734 0.08713,0.67777 -0.0291,0.11624 -0.116048,0.20522 -0.140625,0.32813 -0.0285,0.14264 -0.01162,0.31705 -0.04687,0.45754 -0.0543,0.21657 -0.0237,0.004 -0.09375,0.14063 -0.01193,0.0232 0.01845,0.0598 0,0.0782 -0.15198,0.15201 -0.192983,0.4916 -0.407993,0.65286 -0.213975,0.16047 -0.434362,0.0531 -0.678375,0.0937 -0.08778,0.0146 -0.137947,0.0469 -0.234375,0.0469 -0.168562,0 -0.41325,-0.0272 -0.561345,0.0469 -0.0504,0.0252 -0.08831,0.0728 -0.140625,0.0937 -0.06368,0.0255 -1.406692,0.0296 -1.52394,0 -0.171112,-0.0432 -0.34179,-0.0644 -0.515062,-0.0932 -0.494213,-0.0824 -1.007325,0.0937 -1.5,0.0937 -0.197723,0 -0.10548,-0.004 -0.233783,-0.0463 -0.223747,-0.0737 -0.52059,0.0742 -0.744127,0 -0.181478,-0.0602 -0.889343,-0.10899 -1.077518,-0.0463 -0.02093,0.007 -0.0252,0.0425 -0.04687,0.0469 -0.178312,0.0357 -0.427192,-0.0597 -0.601162,0 -0.02093,0.008 -0.03127,0.0313 -0.04687,0.0469 -0.03127,0.0156 -0.05985,0.0384 -0.09375,0.0469 -0.0453,0.0113 -0.107025,-0.033 -0.140025,0 -0.01087,0.0109 0.01087,0.0354 0,0.0463 -0.02115,0.0211 -0.116753,-0.011 -0.14709,0 -0.16395,0.0594 -0.308513,0.10871 -0.45993,0.18691 -0.119513,0.0617 -0.368003,-0.0258 -0.496853,0 -0.296137,0.0594 -0.566145,0.0937 -0.870142,0.0937 -0.15411,0 -0.319905,-0.0568 -0.467588,-0.0937 -0.222765,-0.0557 -0.478117,0.009 -0.700777,-0.0463 -0.241043,-0.0603 -0.49524,-0.0937 -0.75,-0.0937 -0.03405,0 -0.432735,-0.0401 -0.43506,-0.0469 -0.0098,-0.0286 0,-0.0606 0,-0.0909"
       id="path9993" />
    <path
       style="fill:none;stroke:#000000;stroke-width:0.75px;stroke-linecap:butt;stroke-linejoin:miter;stroke-opacity:1"
       d="m 68.899046,106.69128 c -0.0437,0.30358 0.0223,0.68322 0.34234,0.82546 0.648451,0.2882 -0.128824,-0.0652 0.331456,0.0663 0.169123,0.0483 0.309527,0.20521 0.497185,0.23202 0.164282,0.0235 0.333022,0.0126 0.497184,0.0331 0.170421,0.0213 0.30065,0.13305 0.464039,0.16572 0.0292,0.006 0.323946,0.0626 0.331457,0.0663 0.02209,0.011 0.01568,0.0488 0.03314,0.0663 0.01843,0.0185 0.541971,0.1953 0.563476,0.19888 0.252289,0.0421 0.522308,-0.0178 0.773048,0.0331 0.06848,0.014 0.129767,0.056 0.198873,0.0663 0.180338,0.027 0.391206,0 0.575104,0 0.215702,0 0.442488,-0.0697 0.662079,-0.0332 0.118365,0.0197 0.219324,0.11015 0.331457,0.13258 0.05417,0.0109 0.112134,-0.0134 0.165728,0 0.05483,0.0137 0.116798,0.0543 0.162863,0.0658 0.05277,0.0201 0.112135,-0.0134 0.165728,0 0.09768,0.0245 0.196389,0.0824 0.298311,0.0994 0.03269,0.005 0.06728,-0.008 0.09944,0 0.06314,0.0158 0.112245,0.0889 0.164919,0.0994 0.143947,0.0288 0.28222,0.0623 0.430894,0.0994 0.07688,0.0192 0.186248,0 0.26517,0 0.2751,0 0.775523,-0.0503 1.026675,0 0.218138,0.0436 -0.0183,0.0332 0.198878,0.0332 0.02685,0 0.17355,0.0147 0.195555,0 0.02903,-0.0194 0.01163,-0.0874 0.06142,-0.0663 0.215872,0.0915 0.0687,0.0862 0.393352,0.13259 0.210323,0.0301 0.449753,0 0.662918,0 0.407902,0 0.827235,0.0238 1.226385,-0.0332 0.27363,-0.0391 0.587722,0 0.861787,0 0.19341,0 0.416663,0.0269 0.596625,-0.0331 0.07125,-0.0238 0.150158,0 0.225233,0 0.28464,0 0.476745,0.0148 0.754575,-0.0392 0.07297,-0.0142 0.13881,-0.0556 0.211665,-0.0706 0.241567,-0.0495 0.759712,0 1.024222,0 0.247403,0 0.583868,-0.15195 0.758588,-0.0994 0.51978,0.15624 1.074202,0.13646 1.611982,0.13646 0.485843,0 0.97029,-0.15458 1.457573,-0.19888 0.233257,-0.0212 0.530977,0.0572 0.759847,0 0.07455,-0.0186 0.15423,-0.0663 0.23202,-0.0663"
       id="path10320" />
    <path
       style="fill:none;stroke:#000000;stroke-width:0.75px;stroke-linecap:butt;stroke-linejoin:miter;stroke-opacity:1"
       d="m 37.74628,7.2717551 c 0.302301,0.00427 0.698997,-0.041317 0.820144,-0.3046418 0.06166,-0.1340211 0.501333,-0.1577998 0.606785,-0.2643396 0.05251,-0.053045 0.161679,-0.2012133 0.265166,-0.2557599 0.02087,-0.010996 0.177592,-0.00608 0.19575,0 0.19773,0.066131 0.219628,0.097586 0.366997,0.1775103 0.07726,0.041899 0.41869,-0.033287 0.478637,0.058328 0.04684,0.071583 0.120718,0.061678 0.192595,0.1236841 0.01661,0.014329 -0.01886,0.1254626 0,0.135605 0.0012,6.558e-4 0.119608,-6.62e-4 0.12046,0 0.08143,0.063303 0.142527,0.1830049 0.202515,0.2436024 0.02165,0.021871 0.282146,0.088685 0.293779,0.1072084 0.05063,0.080617 0.02914,0.1437911 0.109762,0.2235368 0.04642,0.045907 0.84075,0.1171066 1.041757,0.2598707 0.09304,0.066083 0.342575,-0.071113 0.430926,0 0.0417,0.033564 0.06911,0.1078583 0.109455,0.1380741 0.08847,0.066259 0.289439,2.478e-4 0.365945,0.076757 0.01427,0.014264 0,0.040343 0,0.060515 0,0.02067 -0.01462,0.047395 0,0.062009 0.02889,0.028882 0.09366,-0.028885 0.122549,0 0.06904,0.06904 -0.02653,0.1649132 0.09442,0.2427042 0.184152,0.1184463 0.921207,-0.046184 1.061259,0.061295 0.05529,0.042432 0.05823,0.1236425 0.184987,0.1562785 0.0856,0.022038 0.186108,-0.039529 0.265165,0 0.01976,0.00988 -0.01501,0.05007 0,0.066291 0.03034,0.032799 0.08922,0.030947 0.124474,0.061319 0.03027,0.026083 -0.01268,0.081984 0,0.1198758 0.02529,0.075552 0.107388,0.1232901 0.132582,0.1988738 0.01397,0.041926 -0.01397,0.090656 0,0.1325825 0.03062,0.091857 0.23384,0.2161143 0.252461,0.2612039 0.01676,0.040593 -0.01068,0.089155 0,0.1317541 0.04478,0.17858 0.236049,0.3753556 0.236049,0.5197376"
       id="path1906" />
  </g>
</svg>
