<?xml version="1.0" encoding="UTF-8" standalone="no"?>
<svg
   width="119.57275pt"
   height="104.3069pt"
   viewBox="0 0 119.57275 104.3069"
   version="1.1"
   id="svg641"
   sodipodi:docname="shield_plate.svg"
   inkscape:version="1.1 (c4e8f9ed74, 2021-05-24)"
   xmlns:inkscape="http://www.inkscape.org/namespaces/inkscape"
   xmlns:sodipodi="http://sodipodi.sourceforge.net/DTD/sodipodi-0.dtd"
   xmlns="http://www.w3.org/2000/svg"
   xmlns:svg="http://www.w3.org/2000/svg">
  <defs
     id="defs645">
    <inkscape:path-effect
       effect="fill_between_many"
       method="originald"
       linkedpaths="#path1040,0,1|#path1038,0,1|#path1036,0,1|#path1034,0,1|#path1032,0,1|#path1030,0,1|#path1028,0,1|#path1026,0,1|#path1024,0,1|#path1022,0,1|#path1020,0,1|#path1018,0,1|#path1016,0,1|#path1014,0,1|#path1012,0,1|#path1010,0,1|#path1434,0,1|"
       id="path-effect1061" />
  </defs>
  <sodipodi:namedview
     id="namedview643"
     pagecolor="#ffffff"
     bordercolor="#666666"
     borderopacity="1.0"
     inkscape:pageshadow="2"
     inkscape:pageopacity="0.0"
     inkscape:pagecheckerboard="0"
     inkscape:document-units="pt"
     showgrid="false"
     inkscape:zoom="4"
     inkscape:cx="97.75"
     inkscape:cy="66"
     inkscape:window-width="1920"
     inkscape:window-height="1060"
     inkscape:window-x="1920"
     inkscape:window-y="20"
     inkscape:window-maximized="1"
     inkscape:current-layer="surface1-3"
     fit-margin-top="0"
     fit-margin-left="0"
     fit-margin-right="0"
     fit-margin-bottom="0" />
  <g
     id="surface1-3"
     transform="translate(-0.86322131,-5.2720109)">
    <path
       inkscape:original-d="M 0,0"
       inkscape:path-effect="#path-effect1061"
       d="m 41.329619,6.5465914 c 0.753912,0.999936 1.93752,1.578096 3.187512,1.562472 h 66.121129 c 5.32029,0 9.63669,4.3125116 9.63669,9.6366956 l 0.0195,21.828168 -0.48454,2.835936 -18.8162,61.226567 c -1.203115,3.3984 -4.414099,5.66791 -8.015611,5.66791 l -12.175776,0.13284 -44.390664,-0.1332 c -0.26568,3.6e-4 -0.53136,-0.0113 -0.796896,-0.0347 l -22.62888,-0.90234 c -12.08203238,0 -16.5429364,-15.867213 -6.2382964,-22.164117 3.8671924,-1.546848 6.6797284,-4.960944 7.4609284,-9.054648 L 14.189003,9.4527994 c 0.39816,-2.01564 1.957032,-3.601584 3.968784,-4.039056 l 21.089808,0.042984 c 0.832032,-0.011736 1.616904,0.398664 2.082024,1.089864 L 120.29447,39.573927 c 0,0.96876 -0.16416,1.925784 -0.48456,2.835936 l -26.831811,66.894477 -12.175776,0.13284 z"
       id="path1063" />
    <path
       style="fill:none;stroke:#7373de;stroke-width:0.283465;stroke-linecap:round;stroke-linejoin:miter;stroke-miterlimit:10;stroke-opacity:1"
       d="m 41.329619,6.5465914 c 0.753912,0.999936 1.93752,1.578096 3.187512,1.562472"
       id="path1040" />
    <path
       style="fill:none;stroke:#7373de;stroke-width:0.283465;stroke-linecap:round;stroke-linejoin:miter;stroke-miterlimit:10;stroke-opacity:1"
       d="M 14.208515,77.148135 14.189003,9.4527994"
       id="path1038" />
    <path
       style="fill:none;stroke:#7373de;stroke-width:0.283465;stroke-linecap:round;stroke-linejoin:miter;stroke-miterlimit:10;stroke-opacity:1"
       d="M 35.614763,109.26921 12.985883,108.3669"
       id="path1036" />
    <path
       style="fill:none;stroke:#7373de;stroke-width:0.283465;stroke-linecap:round;stroke-linejoin:miter;stroke-miterlimit:10;stroke-opacity:1"
       d="m 120.29447,39.573927 c 0,0.96876 -0.16416,1.925784 -0.48456,2.835936"
       id="path1034" />
    <path
       style="fill:none;stroke:#7373de;stroke-width:0.283465;stroke-linecap:round;stroke-linejoin:miter;stroke-miterlimit:10;stroke-opacity:1"
       d="m 36.411659,109.30434 c -0.26568,0 -0.53136,-0.0117 -0.796896,-0.0351"
       id="path1032" />
    <path
       style="fill:none;stroke:#7373de;stroke-width:0.283465;stroke-linecap:round;stroke-linejoin:miter;stroke-miterlimit:10;stroke-opacity:1"
       d="m 92.978099,109.30434 -12.175776,0.13284"
       id="path1030" />
    <path
       style="fill:none;stroke:#7373de;stroke-width:0.283465;stroke-linecap:round;stroke-linejoin:miter;stroke-miterlimit:10;stroke-opacity:1"
       d="m 100.99371,103.63643 c -1.203115,3.3984 -4.414099,5.66791 -8.015611,5.66791"
       id="path1028" />
    <path
       style="fill:none;stroke:#7373de;stroke-width:0.283465;stroke-linecap:round;stroke-linejoin:miter;stroke-miterlimit:10;stroke-opacity:1"
       d="m 41.329619,6.5465914 c -0.46512,-0.6912 -1.249992,-1.1016 -2.082024,-1.089864"
       id="path1026" />
    <path
       style="fill:none;stroke:#7373de;stroke-width:0.283465;stroke-linecap:round;stroke-linejoin:miter;stroke-miterlimit:10;stroke-opacity:1"
       d="M 39.247595,5.4567274 18.157787,5.4137434"
       id="path1024" />
    <path
       style="fill:none;stroke:#7373de;stroke-width:0.283465;stroke-linecap:round;stroke-linejoin:miter;stroke-miterlimit:10;stroke-opacity:1"
       d="m 12.985883,108.3669 c -12.08203238,0 -16.5429364,-15.867213 -6.2382964,-22.164117"
       id="path1022" />
    <path
       style="fill:none;stroke:#7373de;stroke-width:0.283465;stroke-linecap:round;stroke-linejoin:miter;stroke-miterlimit:10;stroke-opacity:1"
       d="m 119.80991,42.409863 -18.8162,61.226567"
       id="path1020" />
    <path
       style="fill:none;stroke:#7373de;stroke-width:0.283465;stroke-linecap:round;stroke-linejoin:miter;stroke-miterlimit:10;stroke-opacity:1"
       d="m 120.27495,17.745759 0.0195,21.828168"
       id="path1018" />
    <path
       style="fill:none;stroke:#7373de;stroke-width:0.283465;stroke-linecap:round;stroke-linejoin:miter;stroke-miterlimit:10;stroke-opacity:1"
       d="m 14.208515,77.148135 c -0.7812,4.093704 -3.593736,7.5078 -7.4609284,9.054648"
       id="path1016" />
    <path
       style="fill:none;stroke:#7373de;stroke-width:0.283465;stroke-linecap:round;stroke-linejoin:miter;stroke-miterlimit:10;stroke-opacity:1"
       d="M 44.517131,8.1090634 H 110.63826"
       id="path1014" />
    <path
       style="fill:none;stroke:#7373de;stroke-width:0.283465;stroke-linecap:round;stroke-linejoin:miter;stroke-miterlimit:10;stroke-opacity:1"
       d="m 14.189003,9.4527994 c 0.39816,-2.01564 1.957032,-3.601584 3.968784,-4.039056"
       id="path1012" />
    <path
       style="fill:none;stroke:#7373de;stroke-width:0.283465;stroke-linecap:round;stroke-linejoin:miter;stroke-miterlimit:10;stroke-opacity:1"
       d="m 80.802323,109.43718 -44.390664,-0.1332"
       id="path1010" />
    <path
       style="fill:none;stroke:#7373de;stroke-width:0.283465;stroke-linecap:round;stroke-linejoin:miter;stroke-miterlimit:10;stroke-opacity:1"
       d="m 120.27495,17.745759 c 0,-5.324184 -4.3164,-9.6366956 -9.63669,-9.6366956"
       id="path1434" />
    <path
       style="fill:#000000;stroke:#7373de;stroke-width:0.0943333;stroke-miterlimit:10;fill-opacity:1"
       d="m 60,138.38088 c -17.872703,-0.1615 -40.505196,-0.84531 -45.8072,-1.384 -4.9747395,-0.50543 -9.602098,-3.76645 -11.879648,-8.37188 -2.6208525,-5.29963 -2.33110284,-11.02233 0.796261,-15.72656 1.4932202,-2.24612 3.1644882,-3.7007 5.9542,-5.18222 3.740505,-1.98645 6.461469,-4.91971 8.201336,-8.84122 L 17.875,97.5 18,51.25 18.125,5 18.665593,4 C 19.312034,2.8041995 20.550627,1.5947191 21.747479,0.99055163 22.786653,0.46597985 21.790834,0.49098392 38.682518,0.5653293 L 52.240035,0.625 53.859575,2.0926917 C 54.99889,3.125184 55.811557,3.6440935 56.600262,3.8426918 57.41263,4.047248 70.138977,4.125 102.80818,4.125 c 49.73344,0 46.38679,-0.106082 49.53944,1.570298 2.74982,1.4621777 5.0076,4.2317668 6.05674,7.429702 0.41163,1.254723 0.45859,2.766097 0.53684,17.277962 0.0727,13.476888 0.0285,16.146598 -0.28935,17.5 -0.2063,0.87837 -6.06596,20.103288 -13.02146,42.722038 -9.58859,31.18136 -12.84089,41.4478 -13.45088,42.46002 -1.45223,2.40985 -3.80785,4.17758 -6.55451,4.91873 -1.31837,0.35575 -4.17902,0.41396 -23.625,0.48074 -12.16875,0.0418 -31.06875,-0.005 -42,-0.10361 z"
       id="path1221"
       transform="matrix(0.75,0,0,0.75,0.86322131,5.2720109)" />
    <path
       style="fill:#000000;fill-opacity:1;stroke:#7373de;stroke-width:0.0943333;stroke-miterlimit:10"
       d="m 59.625,138.20475 c -15.17952,-0.116 -39.211876,-0.84015 -44.454913,-1.33952 -3.04482,-0.29001 -5.115447,-0.96014 -7.3157485,-2.36766 -6.4469262,-4.12405 -8.9526781,-12.97067 -5.5756763,-19.68507 1.4894451,-2.96143 3.3433403,-4.86382 6.5685743,-6.7404 4.0490875,-2.35594 6.3196065,-4.66684 8.1419595,-8.286758 L 18.013835,97.75 18.173415,51.2958 18.332995,4.8416005 19.232185,3.554524 C 19.73364,2.8367555 20.673877,1.9318442 21.357848,1.5087239 L 22.58432,0.75 28.60466,0.66249645 c 3.311188,-0.048127 9.994572,-0.006741 14.851968,0.0919684 l 8.831627,0.17947199 1.418373,1.25212536 c 2.495089,2.2026416 -2.198376,1.9923595 47.168372,2.1132895 24.2,0.059281 45.20495,0.2022615 46.67766,0.3177345 C 150.9654,4.884674 152.42079,5.554949 154.89807,8 c 2.41645,2.385012 3.35254,4.347443 3.65219,7.656457 0.12023,1.327608 0.18546,9.091767 0.14497,17.253688 l -0.0736,14.839855 -2.20496,7.125 c -1.21273,3.91875 -4.56567,14.83125 -7.45099,24.25 -9.65538,31.51883 -15.13443,49.00956 -16.47405,52.59 -0.67868,1.81394 -1.90091,3.36562 -3.52924,4.48056 -2.33869,1.60132 -2.96448,1.72982 -9.46238,1.94299 -5.21338,0.17102 -40.981792,0.21057 -59.875,0.0662 z"
       id="path2296"
       transform="matrix(0.75,0,0,0.75,0.86322131,5.2720109)" />
    <path
       style="fill:#000000;fill-opacity:1;stroke:#7373de;stroke-width:0.0943333;stroke-miterlimit:10"
       d="M 47.25,137.86688 C 35.852425,137.62162 23.077752,137.17976 18.001248,136.85518 11.276513,136.42523 8.9139502,135.54769 5.6170232,132.25524 4.1248905,130.76514 3.372964,129.76832 2.6900713,128.375 -1.022349,120.80049 1.4593421,112.73257 8.875,108.26796 c 4.270521,-2.57109 6.471286,-4.84407 8.36835,-8.64296 l 0.936324,-1.875 0.17347,-46.3538 C 18.469067,20.419829 18.611979,4.882894 18.78394,4.561582 19.234444,3.7198073 20.840113,2.0743864 21.806141,1.4645601 L 22.740064,0.875 33.932532,0.875915 c 6.155858,5.025e-4 12.820323,0.0753776 14.809925,0.166388 l 3.617458,0.1654735 1.132542,1.0486892 c 0.622898,0.576779 1.391258,1.1838541 1.707465,1.3490558 C 56.291092,4.175602 62.94399,4.3644052 83,4.3944632 c 11.06875,0.016587 30.41875,0.1147873 43,0.2182188 20.56951,0.169104 23.00923,0.2311492 24.20681,0.6156095 1.84567,0.5925127 2.65403,1.131325 4.61811,3.0781943 1.9798,1.9624582 3.04059,3.9244082 3.41629,6.3185152 0.15312,0.975688 0.25577,7.864037 0.2569,17.239119 l 0.002,15.614117 -7.02642,22.885883 c -14.01321,45.64271 -18.42557,59.6584 -19.48845,61.90429 -0.79863,1.68754 -2.77673,3.73503 -4.41678,4.57172 -0.56097,0.28619 -1.67772,0.64909 -2.48165,0.80644 -1.77882,0.34816 -63.744395,0.52354 -77.836698,0.22031 z"
       id="path2335"
       transform="matrix(0.75,0,0,0.75,0.86322131,5.2720109)" />
    <path
       style="fill:#000000;fill-opacity:1;stroke:#7373de;stroke-width:0.0943333;stroke-miterlimit:10"
       d="M 43,137.60382 C 38.53125,137.49863 31.725,137.2893 27.875,137.13864 11.319859,136.49077 9.7183695,136.10318 5.5086743,131.72561 2.5531409,128.65222 1.2471068,125.46465 1.2529672,121.33892 c 0.00753,-5.30341 2.5842973,-9.51908 7.9902371,-13.07227 4.2398947,-2.78677 5.8475157,-4.4311 7.8903027,-8.07044 l 1.209717,-2.155178 0.186667,-45.270515 C 18.632558,27.871732 18.788421,6.8310072 18.876254,6.0133492 19.062942,4.2754235 19.553351,3.4896828 21.325808,2.0886354 L 22.592671,1.0872383 37.410865,1.1686191 52.22906,1.25 53.30203,2.2638657 c 1.67772,1.5853038 1.808183,1.646414 4.002625,1.8748803 1.13869,0.1185505 21.026595,0.3341172 44.195345,0.479037 23.16875,0.14492 43.5875,0.3592068 45.375,0.4761927 4.11433,0.2692693 5.05315,0.6713238 7.6432,3.2732218 2.17539,2.1853505 3.15259,3.9459275 3.49156,6.2905545 0.1266,0.875737 0.23245,8.66743 0.23521,17.314876 l 0.005,15.722627 -7.23202,23.527373 c -10.26563,33.396412 -13.94962,45.241422 -16.66342,53.577302 -2.05971,6.32671 -2.51903,7.49325 -3.44529,8.75 -1.20914,1.64057 -2.37897,2.61014 -4.10093,3.39892 -1.13006,0.51764 -1.63918,0.54948 -11.30834,0.70714 -13.5933,0.22164 -62.35761,0.18655 -72.5,-0.0522 z"
       id="path2374"
       transform="matrix(0.75,0,0,0.75,0.86322131,5.2720109)" />
    <path
       style="fill:#000000;fill-opacity:1;stroke:#7373de;stroke-width:0.0943333;stroke-miterlimit:10"
       d="M 39.875,137.3558 C 19.080595,136.83149 12.724777,136.27753 9.521302,134.71021 7.898387,133.9162 4.9292335,131.07105 3.692658,129.125 2.0869275,126.598 1.625,124.89453 1.625,121.5 c 0,-3.63918 0.4280037,-5.1648 2.1865883,-7.7941 1.4139354,-2.11401 2.5731977,-3.18259 6.3134117,-5.81956 3.332416,-2.34946 5.321461,-4.43427 7.060808,-7.40074 l 1.310808,-2.2356 0.0089,-7 c 0.0049,-3.85 0.1132,-24.67593 0.240649,-46.279843 C 19.009292,0.3714425 18.775859,4.446 21.180035,2.4875728 L 22.545834,1.375 h 14.803041 14.803043 l 0.861539,0.8914922 C 54.97224,4.29337 54.495013,4.2078715 64.988988,4.411987 70.151295,4.5123975 90.40625,4.7191865 110,4.8715178 c 19.59375,0.1523314 36.68345,0.3851924 37.97711,0.5174692 1.49415,0.1527757 2.74394,0.4361912 3.4263,0.7769793 1.16487,0.5817614 3.96018,3.2607077 4.98543,4.7778917 1.53181,2.266791 1.47154,1.492859 1.5563,19.984589 l 0.0776,16.928448 -7.52961,24.446553 c -14.59903,47.398992 -17.77668,57.403732 -19.00971,59.851462 -0.87893,1.74479 -2.64413,3.53839 -4.32739,4.397 -1.24998,0.6376 -1.44162,0.65815 -7.90603,0.84771 -8.31996,0.24397 -69.296192,0.21031 -79.375,-0.0438 z"
       id="path2413"
       transform="matrix(0.75,0,0,0.75,0.86322131,5.2720109)" />
  </g>
</svg>
